name C:/MyDriveSym/Projects/mobilecap/Data\Session20210910_0002\mocap\ForceDataProcessed\walkingTS3_forces.mot
datacolumns 19
datarows 24
range 0.79950000 0.81100000
endheader 
time	R_ground_force_vx	R_ground_force_vy	R_ground_force_vz	R_ground_force_px	R_ground_force_py	R_ground_force_pz	R_ground_torque_x	R_ground_torque_y	R_ground_torque_z	L_ground_force_vx	L_ground_force_vy	L_ground_force_vz	L_ground_force_px	L_ground_force_py	L_ground_force_pz	L_ground_torque_x	L_ground_torque_y	L_ground_torque_z	
          0.79950000	         10.28206000	         46.88482700	         -8.71276000	          0.34841400	          0.00600000	         -0.20411600	          0.00000000	         -0.31102900	          0.00000000	       -138.73161700	        916.73984500	         78.61801000	          0.85063400	          0.00600000	         -0.44891600	          0.00000000	         -4.60884800	          0.00000000	
          0.80000000	          9.98961700	         45.75702900	         -8.62261300	          0.34931800	          0.00600000	         -0.20408100	          0.00000000	         -0.29615200	          0.00000000	       -138.61565100	        917.44185700	         78.63481900	          0.85082300	          0.00600000	         -0.44896800	          0.00000000	         -4.61621800	          0.00000000	
          0.80050000	          9.70047200	         44.64182700	         -8.53284900	          0.35025200	          0.00600000	         -0.20404300	          0.00000000	         -0.28124300	          0.00000000	       -138.49716800	        918.13394300	         78.65084100	          0.85101200	          0.00600000	         -0.44902100	          0.00000000	         -4.62342800	          0.00000000	
          0.80100000	          9.41461800	         43.53916100	         -8.44346500	          0.35121900	          0.00600000	         -0.20400400	          0.00000000	         -0.26629700	          0.00000000	       -138.37618000	        918.81610700	         78.66608500	          0.85120100	          0.00600000	         -0.44907300	          0.00000000	         -4.63047700	          0.00000000	
          0.80150000	          9.13204600	         42.44897500	         -8.35446300	          0.35221900	          0.00600000	         -0.20396300	          0.00000000	         -0.25130500	          0.00000000	       -138.25269700	        919.48835400	         78.68056000	          0.85138900	          0.00600000	         -0.44912500	          0.00000000	         -4.63736600	          0.00000000	
          0.80200000	          8.85274800	         41.37120700	         -8.26584300	          0.35325400	          0.00600000	         -0.20392000	          0.00000000	         -0.23626000	          0.00000000	       -138.12673100	        920.15069000	         78.69427500	          0.85157700	          0.00600000	         -0.44917700	          0.00000000	         -4.64409600	          0.00000000	
          0.80250000	          8.57671600	         40.30580000	         -8.17760300	          0.35432700	          0.00600000	         -0.20387600	          0.00000000	         -0.22115400	          0.00000000	       -137.99829300	        920.80312200	         78.70723800	          0.85176400	          0.00600000	         -0.44923000	          0.00000000	         -4.65066700	          0.00000000	
          0.80300000	          8.30393900	         39.25269200	         -8.08974500	          0.35543900	          0.00600000	         -0.20382800	          0.00000000	         -0.20597900	          0.00000000	       -137.86739600	        921.44565900	         78.71945900	          0.85195100	          0.00600000	         -0.44928200	          0.00000000	         -4.65707900	          0.00000000	
          0.80350000	          8.03440900	         38.21182200	         -8.00226700	          0.35659400	          0.00600000	         -0.20377900	          0.00000000	         -0.19072500	          0.00000000	       -137.73405000	        922.07830700	         78.73094600	          0.85213700	          0.00600000	         -0.44933400	          0.00000000	         -4.66333300	          0.00000000	
          0.80400000	          7.76811600	         37.18312800	         -7.91517200	          0.35779300	          0.00600000	         -0.20372700	          0.00000000	         -0.17538100	          0.00000000	       -137.59826700	        922.70107800	         78.74170700	          0.85232300	          0.00600000	         -0.44938600	          0.00000000	         -4.66943000	          0.00000000	
          0.80450000	          7.50504900	         36.16654900	         -7.82845700	          0.35904000	          0.00600000	         -0.20367300	          0.00000000	         -0.15993700	          0.00000000	       -137.46005800	        923.31398100	         78.75175000	          0.85250800	          0.00600000	         -0.44943800	          0.00000000	         -4.67536900	          0.00000000	
          0.80500000	          7.24519800	         35.16202000	         -7.74212500	          0.36033700	          0.00600000	         -0.20361500	          0.00000000	         -0.14438000	          0.00000000	       -137.31943700	        923.91702600	         78.76108400	          0.85269300	          0.00600000	         -0.44949100	          0.00000000	         -4.68115200	          0.00000000	
          0.80550000	          6.98855100	         34.16947800	         -7.65617500	          0.36168800	          0.00600000	         -0.20355500	          0.00000000	         -0.12869900	          0.00000000	       -137.17641400	        924.51022700	         78.76971700	          0.85287800	          0.00600000	         -0.44954300	          0.00000000	         -4.68677900	          0.00000000	
          0.80600000	          6.73509800	         33.18886000	         -7.57060800	          0.36309500	          0.00600000	         -0.20349200	          0.00000000	         -0.11287700	          0.00000000	       -137.03100100	        925.09359600	         78.77765500	          0.85306200	          0.00600000	         -0.44959500	          0.00000000	         -4.69225100	          0.00000000	
          0.80650000	          6.48482700	         32.22010000	         -7.48542400	          0.36456400	          0.00600000	         -0.20342500	          0.00000000	         -0.09690100	          0.00000000	       -136.88321100	        925.66714500	         78.78490800	          0.85324600	          0.00600000	         -0.44964700	          0.00000000	         -4.69756800	          0.00000000	
          0.80700000	          6.23772600	         31.26313500	         -7.40062400	          0.36609800	          0.00600000	         -0.20335500	          0.00000000	         -0.08075200	          0.00000000	       -136.73305600	        926.23089000	         78.79148200	          0.85342900	          0.00600000	         -0.44969900	          0.00000000	         -4.70273000	          0.00000000	
          0.80750000	          5.99378100	         30.31789700	         -7.31620800	          0.36770200	          0.00600000	         -0.20328100	          0.00000000	         -0.06441300	          0.00000000	       -136.58054800	        926.78484500	         78.79738500	          0.85361200	          0.00600000	         -0.44975100	          0.00000000	         -4.70773900	          0.00000000	
          0.80800000	          5.75298100	         29.38432100	         -7.23217800	          0.36938100	          0.00600000	         -0.20320200	          0.00000000	         -0.04786300	          0.00000000	       -136.42569900	        927.32902600	         78.80262400	          0.85379500	          0.00600000	         -0.44980300	          0.00000000	         -4.71259500	          0.00000000	
          0.80850000	          5.51531300	         28.46234100	         -7.14853300	          0.37114000	          0.00600000	         -0.20312000	          0.00000000	         -0.03108100	          0.00000000	       -136.26852200	        927.86345000	         78.80720700	          0.85397700	          0.00600000	         -0.44985500	          0.00000000	         -4.71729800	          0.00000000	
          0.80900000	          5.28076300	         27.55189000	         -7.06527600	          0.37298500	          0.00600000	         -0.20303200	          0.00000000	         -0.01404000	          0.00000000	       -136.10902900	        928.38813300	         78.81113900	          0.85415900	          0.00600000	         -0.44990800	          0.00000000	         -4.72184900	          0.00000000	
          0.80950000	          5.04931700	         26.65290000	         -6.98240700	          0.37492400	          0.00600000	         -0.20294000	          0.00000000	          0.00328500	          0.00000000	       -135.94723200	        928.90309600	         78.81442800	          0.85434000	          0.00600000	         -0.44996000	          0.00000000	         -4.72625000	          0.00000000	
          0.81000000	          4.82096200	         25.76530300	         -6.89992600	          0.37696400	          0.00600000	         -0.20284200	          0.00000000	          0.02092500	          0.00000000	       -135.78314500	        929.40835500	         78.81708100	          0.85452100	          0.00600000	         -0.45001200	          0.00000000	         -4.73050000	          0.00000000	
          0.81050000	          4.59568300	         24.88903200	         -6.81783600	          0.37911300	          0.00600000	         -0.20273800	          0.00000000	          0.03891200	          0.00000000	       -135.61678000	        929.90393100	         78.81910300	          0.85470100	          0.00600000	         -0.45006400	          0.00000000	         -4.73460000	          0.00000000	
          0.81100000	          4.37346500	         24.02401800	         -6.73613700	          0.38138000	          0.00600000	         -0.20262700	          0.00000000	          0.05728500	          0.00000000	       -135.44815000	        930.38984400	         78.82050300	          0.85488100	          0.00600000	         -0.45011600	          0.00000000	         -4.73855100	          0.00000000	
